<svg width="32" height="40" xmlns="http://www.w3.org/2000/svg">
 <title>interface popup window add plus</title>

 <g>
  <title>Layer 1</title>
  <g data-name="Layer 25" id="svg_1">
   <path d="m28,1l-11,0a3,3 0 0 0 -3,3l0,5l-10,0a3,3 0 0 0 -3,3l0,16a3,3 0 0 0 3,3l16,0a3,3 0 0 0 3,-3l0,-10l5,0a3,3 0 0 0 3,-3l0,-11a3,3 0 0 0 -3,-3zm-7,27a1,1 0 0 1 -1,1l-16,0a1,1 0 0 1 -1,-1l0,-16a1,1 0 0 1 1,-1l16,0a1,1 0 0 1 1,1l0,16zm8,-13a1,1 0 0 1 -1,1l-5,0l0,-4a3,3 0 0 0 -3,-3l-4,0l0,-5a1,1 0 0 1 1,-1l11,0a1,1 0 0 1 1,1l0,11z" id="svg_2" fill="#161515"/>
   <path d="m18,19l-5,0l0,-4a1,1 0 0 0 -2,0l0,4l-5,0a1,1 0 0 0 0,2l5,0l0,4a1,1 0 0 0 2,0l0,-4l5,0a1,1 0 0 0 0,-2z" id="svg_3" fill="#161515"/>
  </g>
  <text x="0" y="47" fill="#161515" font-size="5px" font-weight="bold" font-family="'Helvetica Neue', Helvetica, Arial-Unicode, Arial, Sans-serif" id="svg_4">Created by Dam</text>
  <text x="0" y="52" fill="#161515" font-size="5px" font-weight="bold" font-family="'Helvetica Neue', Helvetica, Arial-Unicode, Arial, Sans-serif" id="svg_5">from the Noun Project</text>
 </g>
</svg>